# xmcd
#
# Track frame offsets:
#	150
#	54574
#	123772
#	175743
#	205252
#	246823
#	268801
#
# Disc length: 3772 seconds
#
# Revision: 0
# Processed by: cddbd v1.5.2PL0 Copyright (c) Steve Scherf et al.
# Submitted via: audiograbber 1.83.01
#
DISCID=5e0eba07
DTITLE=Grateful Dead - 93-05-22 Shoreline Amphitheatre, Mountain View CA
DYEAR=1900
DGENRE=
TTITLE0=Corrina
TTITLE1=Drums
TTITLE2=Space
TTITLE3=The Last Time
TTITLE4=Stella Blue
TTITLE5=One More Saturday Night
TTITLE6=I Fought The Law
EXTD=
EXTT0=
EXTT1=
EXTT2=
EXTT3=
EXTT4=
EXTT5=
EXTT6=
PLAYORDER=
